<svg version="1.1" xmlns="http://www.w3.org/2000/svg" xmlns:xlink="http://www.w3.org/1999/xlink" width="1342.49299" height="1022.51131" viewBox="0,0,1342.49299,1022.51131"><defs><radialGradient cx="242.5" cy="182" r="163" gradientUnits="userSpaceOnUse" id="color-1"><stop offset="0" stop-color="#ffffff"/><stop offset="1" stop-color="#1a1a1a"/></radialGradient></defs><g transform="translate(431.2465,331.25565)"><g data-paper-data="{&quot;isPaintingLayer&quot;:true}" fill-rule="nonzero" stroke-linecap="butt" stroke-linejoin="miter" stroke-miterlimit="10" stroke-dasharray="" stroke-dashoffset="0" style="mix-blend-mode: normal"><path d="M-431.2465,691.25566v-1022.51131h1342.49299v1022.51131z" fill="#000000" stroke="#000000" stroke-width="0"/><path d="M77,318v-276h326v276z" fill="url(#color-1)" stroke="#000000" stroke-width="0"/><path d="M388.75,180c0,80.95613 -66.59765,146.58404 -148.75,146.58404c-82.15235,0 -148.75,-65.62791 -148.75,-146.58404c0,-80.95613 66.59765,-146.58404 148.75,-146.58404c82.15235,0 148.75,65.62791 148.75,146.58404z" fill="none" stroke="#000000" stroke-width="50"/><path d="M161.46314,42.97542c-1.80109,2.70894 -4.1287,4.80771 -6.73025,6.58029c-0.3614,0.25071 -0.72974,0.49214 -1.10466,0.72393c-6.87556,4.33932 -15.33017,6.78271 -21.06545,12.16231c-9.34623,8.76663 -17.9146,18.32828 -26.75457,27.60518c-2.55424,2.68049 -5.57871,5.10277 -7.27482,8.39402c-0.59228,1.1493 0.66022,2.50043 1.02058,3.74213c1.79342,6.17964 5.89482,15.99048 5.94603,23.81671c0.20335,31.08016 -0.78097,61.93706 -1,93c-0.06147,8.71783 -5.25879,16.77041 -4.80913,25.47885c0.45147,8.7435 5.64863,17.21693 7.84723,25.65312c1.06265,4.07749 1.11359,8.45973 1.65678,12.56989c0.19648,1.48668 -0.57966,4.29285 0.91577,4.40463c2.67252,0.19976 5.44808,-0.17178 8.01848,0.58672c9.30634,2.74622 18.59988,12.44429 21.67767,21.67767c5.21928,15.65783 6.55027,37.96017 -12.21343,45.20979c-2.223,0.85889 -4.26371,2.27707 -6.59951,2.74979c-1.16462,0.2357 -2.30563,-0.70709 -3.49386,-0.70709c-1.18823,0 -2.32924,0.94279 -3.49386,0.70709c-6.79802,-1.37579 -9.94319,-4.62587 -14.85454,-8.86177c-0.24772,-0.21365 -11.36478,-3.18671 -12.1516,-3.59369c-2.39472,-1.23865 -4.30303,-3.86028 -6.42724,-5.4469c-4.8133,-3.59517 -9.28207,-6.61808 -12.87402,-11.5606c-8.64173,-11.89101 -14.82628,-30.64215 -13.33418,-45.56314c0.2596,-2.59601 1.95888,-2.32081 2.30056,-6.78763c0.08392,-1.09704 -1.80267,-4.3356 -2.20323,-5.64871c-2.2201,-7.27791 -4.68533,-15.26835 -4.85946,-22.87213c-0.15096,-6.59182 0.20433,-13.33037 1.66026,-19.7781c0.83655,-3.7047 3.09278,-7.47195 3.23729,-11.29544c0.28166,-7.452 -0.28096,-16.00293 0.01998,-23.92156c0.95661,-25.17169 1.79667,-34.80118 0.98002,-62.40057c-0.2258,-7.63112 -4.00212,-2.6196 -9.45312,-6.50648c-3.43487,-2.44925 -5.61313,-6.35102 -7.84696,-9.92972c-0.38232,-0.61249 -1.20743,-0.94209 -1.42635,-1.63012c-4.98698,-15.67338 6.00455,-47.72606 8.33814,-58.0309c1.31622,-5.81227 2.6693,-11.61707 3.87835,-17.45257c2.25163,-10.86752 2.21174,-21.68399 10.13447,-29.76042c1.4776,-1.50627 4.21152,-4.83088 6.58679,-5.47285c8.85868,-2.39424 16.89727,-1.72894 25.24181,2.08908c1.27856,0.585 2.35213,1.59896 3.27114,2.66308c1.0453,1.21035 1.10599,4.77129 2.54259,4.06861c1.55844,-0.76228 2.40301,-2.51731 3.75772,-3.60108c1.62841,-1.30273 4.00999,-1.77781 5.88648,-2.4527c1.33139,-0.47884 5.68516,-2.57308 7.76393,-2.15238c2.26947,0.4593 4.3545,1.58992 6.58492,2.21173c2.61307,0.72849 6.21765,0.96671 8.16474,3.19195c3.46088,-1.81114 7.3985,-2.83547 11.57536,-2.83547c12.06853,0 22.13975,8.55155 24.48472,19.92573c1.40114,6.23456 0.46785,13.04937 -3.52158,19.0497z" fill="#000000" stroke="none" stroke-width="0.5"/><path d="M418.5,318c-1.86558,-0.20962 -3.82405,-1.24686 -5.59674,-0.62887c-1.6701,0.58223 -5.3731,4.93797 -7.53575,6.43013c-9.08014,6.26497 -18.91546,15.83567 -29.4932,19.96177c-0.86216,0.33631 -1.84141,-0.26628 -2.76632,-0.23517c-2.7737,0.09331 -5.53832,0.84266 -8.30362,0.60758c-1.82968,-0.15554 -7.50633,-4.26374 -8.28212,-4.75782c-0.7758,-0.49408 -6.89914,-3.90086 -7.81384,-5.49311c-1.38243,-2.40645 -1.8725,-5.22859 -2.9609,-7.78154c-0.36293,-0.8513 -1.2563,-1.49062 -1.38294,-2.40734c-0.22734,-1.64573 0.94584,-3.41475 0.36372,-4.97078c-0.85666,-2.28988 -4.46987,-4.75605 -6.19142,-6.74942c-1.41285,-1.63593 -3.93143,-8.12959 -4.36732,-10.48157c-0.69461,-3.74798 0.66642,-9.05505 1.74988,-12.63348c3.75813,-12.41226 13.55278,-17.04707 23.20429,-24.65578c2.875,-2.26649 5.53032,-4.80373 8.16349,-7.34714c5.35199,-5.16955 10.75116,-10.30457 15.78469,-15.78469c7.36777,-8.02146 9.75493,-20.04518 10.4281,-30.45739c0.82379,-12.74185 -5.85017,-23.80984 -7.74874,-36.07984c-1.31383,-8.49097 -1.9071,-17.97869 -3.74697,-26.44074c-1.44457,-6.64394 -3.47793,-13.21097 -3.50429,-20.0948c-0.05655,-14.76656 0.3014,-29.53641 0,-44.3c-0.00398,-0.19472 -6.29879,-1.74064 -8.18034,-2.33932c-4.24136,-1.34952 -5.64388,-3.77497 -9.91341,-7.90755c-1.37182,-1.32781 -1.84363,-5.43541 -2.42728,-6.61882c-0.96545,-1.95755 -3.92632,-4.10383 -5.28023,-5.9668c-3.16442,-4.35423 -5.78734,-9.6715 -6.3336,-15.13407c-1.73599,-17.35987 7.73782,-37.499 26.73731,-38.8892c2.84168,-0.20793 5.53442,-0.09936 8.06967,1.15576c2.4133,1.19474 6.95851,0.35949 9.83966,1.24178c11.41129,3.49446 19.49034,13.8157 25.58336,23.53856c3.25377,5.19218 7.0675,10.83827 8.71447,16.87238c6.25253,22.90787 3.00492,57.18761 3.19039,76.57059c0.04143,4.33013 1.89723,8.45664 2.65985,12.66672c1.59665,8.81437 1.75912,18.0368 3.82401,26.72028c3.1917,13.42204 8.24852,24.42932 8.51614,38.3897c0.22139,11.54872 -0.77846,23.84341 -4.28292,34.90569c-0.88516,2.79412 -1.91612,5.5411 -2.78057,8.3417c-0.5835,1.89041 -2.2525,3.87223 -1.56167,5.72611c0.56684,1.52114 7.28653,7.14527 8.35159,10.49258c2.84783,8.95031 2.06129,19.07173 0.25835,28.65333c-0.81007,4.30507 -1.82533,8.50117 -2.80831,12.43311c-0.92938,3.71751 -5.81898,9.02653 -9.56791,10.03975z" fill="#000000" stroke="none" stroke-width="0.5"/><path d="M294.8048,172.49249c0,21.56067 -23.19246,39.03904 -51.8018,39.03904c-28.60935,0 -51.8018,-17.47837 -51.8018,-39.03904c0,-21.56067 23.19246,-39.03904 51.8018,-39.03904c28.60935,0 51.8018,17.47837 51.8018,39.03904z" fill="none" stroke="#000000" stroke-width="0"/></g></g></svg>